<svg width="16" height="16" viewBox="0 0 16 16" fill="none" xmlns="http://www.w3.org/2000/svg">
    <g id="facebook-svgrepo-com 1" clip-path="url(#clip0_1335_8577)">
        <g id="XMLID_834_">
            <path id="XMLID_835_"
                d="M4.21705 8.5216H5.97091V15.7419C5.97091 15.8845 6.08642 16 6.22897 16H9.2027C9.34526 16 9.46077 15.8845 9.46077 15.7419V8.55561H11.477C11.6081 8.55561 11.7184 8.45724 11.7333 8.32702L12.0396 5.66885C12.048 5.59572 12.0248 5.52248 11.9759 5.46761C11.9269 5.4127 11.8568 5.38126 11.7832 5.38126H9.46087V3.71499C9.46087 3.2127 9.73132 2.95799 10.2648 2.95799C10.3408 2.95799 11.7832 2.95799 11.7832 2.95799C11.9258 2.95799 12.0413 2.84243 12.0413 2.69992V0.259974C12.0413 0.117419 11.9258 0.00190968 11.7832 0.00190968H9.6906C9.67584 0.0011871 9.64306 0 9.59475 0C9.23166 0 7.96956 0.0712774 6.97261 0.988439C5.86799 2.0048 6.02154 3.22173 6.05824 3.43272V5.38121H4.21705C4.07449 5.38121 3.95898 5.49672 3.95898 5.63928V8.26348C3.95898 8.40604 4.07449 8.5216 4.21705 8.5216Z"
                fill="#525454" />
        </g>
    </g>
    <defs>
        <clipPath id="clip0_1335_8577">
            <rect width="16" height="16" fill="white" />
        </clipPath>
    </defs>
</svg>
