<svg width="18" height="18" viewBox="0 0 18 18" fill="none" xmlns="http://www.w3.org/2000/svg">
    <g id="twitter-svgrepo-com 1" clip-path="url(#clip0_1335_8580)">
        <g id="XMLID_826_">
            <path id="XMLID_827_"
                d="M17.5921 3.3326C17.3093 3.45802 17.0186 3.56387 16.7215 3.64981C17.0732 3.25207 17.3414 2.78407 17.5051 2.27194C17.5418 2.15715 17.5037 2.03149 17.4094 1.95642C17.3151 1.88128 17.1842 1.87228 17.0804 1.93377C16.4496 2.30794 15.7689 2.57684 15.0553 2.73407C14.3364 2.03161 13.36 1.63184 12.3506 1.63184C10.2199 1.63184 8.48643 3.36524 8.48643 5.49585C8.48643 5.66366 8.49706 5.83054 8.51808 5.99509C5.87411 5.76295 3.41606 4.46341 1.72813 2.39289C1.66797 2.31909 1.5753 2.27931 1.48043 2.28692C1.38549 2.29435 1.30019 2.34789 1.25223 2.43016C0.909883 3.0176 0.728896 3.68947 0.728896 4.37306C0.728896 5.30413 1.06132 6.18752 1.64852 6.87779C1.46997 6.81595 1.29671 6.73867 1.13134 6.64687C1.04256 6.59746 0.934212 6.59821 0.846012 6.64878C0.757754 6.69936 0.702419 6.79238 0.700096 6.89405C0.69969 6.91118 0.69969 6.92831 0.69969 6.94567C0.69969 8.33544 1.44768 9.58667 2.59126 10.2686C2.49301 10.2588 2.39483 10.2446 2.29728 10.226C2.19671 10.2067 2.0933 10.242 2.02548 10.3187C1.95754 10.3953 1.93507 10.5022 1.96637 10.5997C2.38966 11.9213 3.47947 12.8933 4.79695 13.1897C3.70424 13.8741 2.45463 14.2326 1.14284 14.2326C0.869122 14.2326 0.593838 14.2165 0.324419 14.1846C0.19058 14.1687 0.0626059 14.2477 0.0170252 14.375C-0.0285554 14.5024 0.0197542 14.6443 0.133619 14.7173C1.81883 15.7978 3.76741 16.369 5.76861 16.369C9.70271 16.369 12.1638 14.5138 13.5355 12.9575C15.2461 11.0169 16.2272 8.44832 16.2272 5.91038C16.2272 5.80435 16.2256 5.69728 16.2223 5.59056C16.8972 5.08209 17.4782 4.46672 17.9511 3.75944C18.0229 3.65202 18.0151 3.51005 17.9319 3.41116C17.8488 3.31222 17.7103 3.28023 17.5921 3.3326Z"
                fill="#525454" />
        </g>
    </g>
    <defs>
        <clipPath id="clip0_1335_8580">
            <rect width="18" height="18" fill="white" />
        </clipPath>
    </defs>
</svg>
