<?xml version="1.0" encoding="utf-8"?>
<!-- Generator: Adobe Illustrator 16.0.0, SVG Export Plug-In . SVG Version: 6.00 Build 0)  -->
<!DOCTYPE svg PUBLIC "-//W3C//DTD SVG 1.1//EN" "http://www.w3.org/Graphics/SVG/1.1/DTD/svg11.dtd">
<svg version="1.1" id="Layer_1" xmlns="http://www.w3.org/2000/svg" xmlns:xlink="http://www.w3.org/1999/xlink" x="0px" y="0px"
	 width="200px" height="53.997px" viewBox="0 0 200 53.997" enable-background="new 0 0 200 53.997" xml:space="preserve">
<g>
	<g>
		<g>
			<g>
				<path fill="#FFFFFF" d="M35.252,16.872v36.373h-9.375v-2.922c-2.852,2.547-6.301,3.674-9.824,3.674
					c-5.025,0-9.527-2.326-12.377-5.852C1.352,45.296,0,41.547,0,36.147V16.872h9.752v19.648c0,3.302,0.676,4.951,1.799,6.226
					c1.5,1.651,3.6,2.253,5.475,2.253c4.125,0,7.125-2.779,8.475-4.502V16.872H35.252z"/>
				<path fill="#FFFFFF" d="M64.119,25.497c-0.675-0.225-2.098-0.375-3.523-0.375c-4.275,0-7.65,3.074-8.85,5.25v22.873h-9.752
					V16.872h9.375v3.676c2.176-2.701,6.15-4.426,10.576-4.426c1.426,0,2.25,0.15,3.3,0.3L64.119,25.497z"/>
				<path fill="#FFFFFF" d="M68.242,53.245V16.873h9.373v2.926c2.775-2.252,6.227-3.677,10.277-3.677c5.023,0,9.6,2.25,12.599,5.849
					c2.401,2.851,3.75,6.526,3.75,12.751v18.523H94.49V33.973c0-3.601-0.822-5.476-2.174-6.827
					c-1.273-1.273-3.225-2.023-5.477-2.023c-4.121,0-7.499,2.626-8.849,4.5v23.623H68.242z"/>
				<path fill="#FFFFFF" d="M128.086,16.122c11.024,0,19.348,8.477,19.348,18.973c0,10.5-8.323,18.902-19.348,18.902
					s-19.35-8.402-19.35-18.902C108.736,24.599,117.062,16.122,128.086,16.122 M128.086,44.999c5.699,0,9.598-4.428,9.598-9.904
					c0-5.473-3.898-9.973-9.598-9.973c-5.701,0-9.602,4.5-9.602,9.973C118.484,40.571,122.385,44.999,128.086,44.999"/>
				<polygon fill="#FFFFFF" points="166.78,39.071 176.756,16.872 186.879,16.872 170.156,53.245 163.405,53.245 146.682,16.872 
					156.808,16.872 				"/>
				<rect x="190.252" fill="#FFFFFF" width="9.748" height="53.245"/>
			</g>
		</g>
	</g>
</g>
</svg>
