<?xml version="1.0" encoding="utf-8"?>
<!-- Generator: Adobe Illustrator 16.0.0, SVG Export Plug-In . SVG Version: 6.00 Build 0)  -->
<!DOCTYPE svg PUBLIC "-//W3C//DTD SVG 1.1//EN" "http://www.w3.org/Graphics/SVG/1.1/DTD/svg11.dtd">
<svg version="1.1" id="Layer_1" xmlns="http://www.w3.org/2000/svg" xmlns:xlink="http://www.w3.org/1999/xlink" x="0px" y="0px"
	 width="200px" height="53.997px" viewBox="0 0 200 53.997" enable-background="new 0 0 200 53.997" xml:space="preserve">
<g>
	<g>
		<g>
			<g>
				<path fill="#2B2B27" d="M35.252,15.875v36.373h-9.375v-2.922C23.025,51.873,19.576,53,16.053,53
					c-5.025,0-9.527-2.326-12.377-5.852C1.352,44.299,0,40.55,0,35.15V15.875h9.752v19.648c0,3.302,0.676,4.951,1.799,6.226
					c1.5,1.651,3.6,2.253,5.475,2.253c4.125,0,7.125-2.779,8.475-4.502V15.875H35.252z"/>
				<path fill="#2B2B27" d="M64.119,24.5c-0.675-0.225-2.098-0.375-3.523-0.375c-4.275,0-7.65,3.074-8.85,5.25v22.873h-9.752V15.875
					h9.375v3.676c2.176-2.701,6.15-4.426,10.576-4.426c1.426,0,2.25,0.15,3.3,0.3L64.119,24.5z"/>
				<path fill="#2B2B27" d="M68.242,52.248V15.876h9.373v2.926c2.775-2.252,6.227-3.677,10.277-3.677c5.023,0,9.6,2.25,12.599,5.849
					c2.401,2.851,3.75,6.526,3.75,12.751v18.523H94.49V32.976c0-3.601-0.822-5.476-2.174-6.827
					c-1.273-1.273-3.225-2.023-5.477-2.023c-4.121,0-7.499,2.626-8.849,4.5v23.623H68.242z"/>
				<path fill="#2B2B27" d="M128.086,15.125c11.024,0,19.348,8.477,19.348,18.973c0,10.5-8.323,18.902-19.348,18.902
					s-19.35-8.402-19.35-18.902C108.736,23.602,117.062,15.125,128.086,15.125 M128.086,44.002c5.699,0,9.598-4.428,9.598-9.904
					c0-5.473-3.898-9.973-9.598-9.973c-5.701,0-9.602,4.5-9.602,9.973C118.484,39.574,122.385,44.002,128.086,44.002"/>
				<polygon fill="#2B2B27" points="166.78,38.074 176.756,15.875 186.879,15.875 170.156,52.248 163.405,52.248 146.682,15.875 
					156.808,15.875 				"/>
				<rect x="190.252" y="-0.997" fill="#2B2B27" width="9.748" height="53.245"/>
			</g>
		</g>
	</g>
</g>
</svg>
